; NON-PLATED HOLES START AT T1
; THROUGH (PLATED) HOLES START AT T100
M48
INCH
T1C0.125984
T100C0.047244
%
T1
X001191Y018104
X022191Y018104
X001191Y001104
X022191Y001104
T100
X010191Y009104
X014191Y018104
X011191Y001104
X020191Y001104
X003191Y005104
X002191Y016104
X007191Y014104
X017191Y003104
X011191Y016104
X013191Y009104
X014191Y001104
X005191Y016104
X016191Y009104
X002191Y014104
X012191Y003104
X008191Y016104
X019191Y009104
X015191Y003104
X014191Y014104
X011191Y009104
X012191Y001104
X020191Y009104
X009191Y003104
X019191Y011104
X003191Y016104
X018191Y003104
X012191Y016104
X009191Y018104
X021191Y016104
X014191Y009104
X015191Y001104
X010191Y003104
X020191Y011104
X006191Y016104
X015191Y016104
X009191Y001104
X017191Y009104
X018191Y001104
X013191Y003104
X012191Y014104
X004191Y018104
X010191Y001104
X018191Y016104
X016191Y003104
X010191Y016104
X003191Y009104
X012191Y009104
X013191Y001104
X009191Y014104
X003191Y008104
X019191Y003104
X013191Y016104
X003191Y011104
X015191Y009104
X016191Y001104
X011191Y003104
X003191Y007104
X020191Y003104
X007191Y016104
X003191Y010104
X009191Y009104
X016191Y016104
X018191Y009104
X004191Y014104
X019191Y001104
X003191Y006104
X014191Y003104
T00
M30
