G04 MADE WITH FRITZING*
G04 WWW.FRITZING.ORG*
G04 DOUBLE SIDED*
G04 HOLES PLATED*
G04 CONTOUR ON CENTER OF CONTOUR VECTOR*
%ASAXBY*%
%FSLAX23Y23*%
%MOIN*%
%OFA0B0*%
%SFA1.0B1.0*%
%ADD10C,0.096614*%
%ADD11C,0.135984*%
%LNMASK0*%
G90*
G70*
G54D10*
X2019Y1110D03*
X1919Y1110D03*
X419Y1410D03*
X919Y1410D03*
X1419Y1410D03*
X1219Y1410D03*
X719Y1410D03*
X219Y1410D03*
X1419Y1810D03*
X1319Y1610D03*
X1219Y1610D03*
X1619Y1610D03*
X1819Y310D03*
X2019Y310D03*
X919Y910D03*
X1019Y910D03*
X1919Y310D03*
X1219Y310D03*
X1419Y310D03*
X1119Y310D03*
X1519Y310D03*
X919Y310D03*
X1019Y310D03*
X1619Y910D03*
X1819Y910D03*
X1119Y910D03*
X1919Y910D03*
X1519Y1610D03*
X2019Y910D03*
X1719Y910D03*
X1219Y910D03*
X1619Y310D03*
X1319Y910D03*
X1519Y910D03*
X1419Y910D03*
X1719Y310D03*
X919Y110D03*
X1219Y110D03*
X1019Y110D03*
X1119Y110D03*
X1319Y110D03*
X2019Y110D03*
X1419Y110D03*
X1919Y110D03*
X1519Y110D03*
X1819Y110D03*
X1619Y110D03*
X319Y710D03*
X1819Y1610D03*
X1319Y310D03*
X2119Y1610D03*
X319Y610D03*
X319Y910D03*
X319Y810D03*
X319Y1110D03*
X319Y510D03*
X319Y1010D03*
X919Y1810D03*
X819Y1610D03*
X719Y1610D03*
X1119Y1610D03*
X1019Y1610D03*
X419Y1810D03*
X619Y1610D03*
X519Y1610D03*
X319Y1610D03*
X219Y1610D03*
G54D11*
X119Y110D03*
X119Y1810D03*
X2219Y1810D03*
X2219Y110D03*
G04 End of Mask0*
M02*