G04 MADE WITH FRITZING*
G04 WWW.FRITZING.ORG*
G04 DOUBLE SIDED*
G04 HOLES PLATED*
G04 CONTOUR ON CENTER OF CONTOUR VECTOR*
%ASAXBY*%
%FSLAX23Y23*%
%MOIN*%
%OFA0B0*%
%SFA1.0B1.0*%
%ADD10C,0.086614*%
%ADD11C,0.024000*%
%LNCOPPER0*%
G90*
G70*
G54D10*
X2019Y1110D03*
X1919Y1110D03*
X419Y1410D03*
X919Y1410D03*
X1419Y1410D03*
X1219Y1410D03*
X719Y1410D03*
X219Y1410D03*
X1419Y1810D03*
X1319Y1610D03*
X1219Y1610D03*
X1619Y1610D03*
X1419Y310D03*
X1619Y310D03*
X1519Y310D03*
X1019Y310D03*
X919Y310D03*
X1119Y310D03*
X1719Y310D03*
X319Y1010D03*
X319Y510D03*
X1219Y310D03*
X1319Y310D03*
X319Y1110D03*
X1819Y1610D03*
X2119Y1610D03*
X319Y710D03*
X1119Y910D03*
X1619Y910D03*
X1719Y910D03*
X1819Y310D03*
X1819Y910D03*
X2019Y910D03*
X1519Y1610D03*
X1919Y910D03*
X1519Y910D03*
X919Y910D03*
X1919Y310D03*
X1419Y910D03*
X1019Y910D03*
X2019Y310D03*
X1319Y910D03*
X319Y810D03*
X1219Y910D03*
X319Y910D03*
X1519Y110D03*
X1419Y110D03*
X1619Y110D03*
X1919Y110D03*
X1819Y110D03*
X2019Y110D03*
X319Y610D03*
X919Y110D03*
X1319Y110D03*
X1219Y110D03*
X1019Y110D03*
X1119Y110D03*
X919Y1810D03*
X819Y1610D03*
X719Y1610D03*
X1119Y1610D03*
X1019Y1610D03*
X419Y1810D03*
X619Y1610D03*
X519Y1610D03*
X319Y1610D03*
X219Y1610D03*
G54D11*
X219Y1445D02*
X219Y1576D01*
D02*
X1219Y1445D02*
X1219Y1576D01*
D02*
X719Y1445D02*
X719Y1576D01*
D02*
X1620Y1211D02*
X1444Y1386D01*
D02*
X1619Y945D02*
X1620Y1211D01*
D02*
X1519Y945D02*
X1520Y1211D01*
D02*
X1520Y1211D02*
X952Y1400D01*
D02*
X1318Y1211D02*
X453Y1403D01*
D02*
X1408Y943D02*
X1318Y1211D01*
D02*
X1319Y811D02*
X1319Y876D01*
D02*
X2120Y811D02*
X1319Y811D01*
D02*
X2119Y1576D02*
X2120Y811D01*
D02*
X354Y910D02*
X884Y910D01*
D02*
X1020Y811D02*
X1020Y876D01*
D02*
X354Y810D02*
X1020Y811D01*
D02*
X354Y710D02*
X1120Y711D01*
D02*
X1120Y711D02*
X1119Y876D01*
D02*
X354Y611D02*
X1219Y612D01*
D02*
X1219Y612D02*
X1219Y876D01*
G04 End of Copper0*
M02*